<?xml version="1.0" encoding="UTF-8"?>
<svg width="72" height="72" version="1.1" viewBox="0 0 72 72" xmlns="http://www.w3.org/2000/svg"><path d="m16.35 10c-3.5073 0-6.3496 2.8639-6.3496 6.3965 0 3.5326 2.8423 6.3984 6.3496 6.3984 3.5073 0 6.3477-2.8658 6.3477-6.3984 0-3.5327-2.8404-6.3965-6.3477-6.3965zm33.033 16.273c-7.3564-1e-6 -10.453 5.7285-10.453 5.7285v-4.6699h-10.297v34.666h10.297v-18.195c-1e-6 -4.876 2.2449-7.7773 6.541-7.7773 3.9491 0 5.8457 2.7879 5.8457 7.7773v18.195h10.684v-21.947c0-9.2864-5.2641-13.777-12.617-13.777zm-38.35 1.0605v34.666h10.736v-34.666h-10.736z"/></svg>
